PathFileType	4	(X/Y/Z)	D:\TRACE\spotREDO_2-26-24\spot_Both_Motion_3_4-platform.trc
DataRate	CameraRate	NumFrames	NumMarkers	Units	OrigDataRate	OrigDataStartFrame	OrigNumFrames
100.00	100.00	      36	5	mm	100.00	6126	      7000
Frame#	Time	Left_Front			Right_Front			Left_Aft			Right_Aft			Post			
		X1	Y1	Z1	X2	Y2	Z2	X3	Y3	Z3	X4	Y4	Z4	X5	Y5	Z5	

6126	61.250	-702.22278	20.34889	-569.09308	712.43665	25.88826	-484.06674	-773.82532	-21.11443	648.80811	795.30090	-14.02693	654.27148	-8.28629	662.50293	-950.00372	
6127	61.260	-702.23407	20.31091	-569.12115	712.42151	25.81831	-484.06995	-773.88013	-21.06799	648.82483	795.29083	-14.02590	654.21985	-8.26946	662.38800	-949.88770	
6128	61.270	-702.27625	20.22452	-569.11176	712.48029	25.70998	-484.09366	-773.84753	-21.06168	648.76642	795.31421	-14.02815	654.20740	-8.24244	662.11188	-949.92792	
6129	61.280	-702.31427	20.10347	-569.16638	712.22272	25.64830	-484.16882	-773.87695	-21.09480	648.88989	795.23962	-14.01399	654.22052	-8.38621	661.95837	-949.97614	
6130	61.290	-702.38409	20.01676	-569.17401	712.26532	25.57249	-484.20874	-773.88947	-21.05400	648.82410	795.20398	-13.91846	654.19183	-8.38519	661.81372	-950.00952	
6131	61.300	-702.39459	20.02231	-569.19159	711.96069	25.83594	-484.38019	-773.90796	-20.95841	648.81311	795.24622	-13.80046	654.07953	-8.48988	661.73242	-950.16187	
6132	61.310	-702.38202	19.91222	-569.17712	712.22955	25.48005	-484.21826	-773.95697	-20.89757	648.77863	795.28845	-13.65831	654.05011	-8.30987	661.39661	-950.22473	
6133	61.320	-702.42938	19.88801	-569.21112	712.36865	25.36753	-484.23856	-773.95892	-20.77972	648.78101	795.24329	-13.60478	653.99768	-8.41874	661.27423	-950.57428	
6134	61.330	-702.39771	19.88299	-569.50745	712.23010	25.25620	-484.32413	-773.98340	-20.77100	648.73694	795.18878	-13.56135	653.98816	-8.35536	661.19977	-950.70923	
6135	61.340	-702.32440	19.40246	-569.43872	712.10895	25.17327	-484.37570	-774.05005	-20.68497	648.66785	795.10474	-13.50585	653.95129	-8.39889	661.15497	-950.86078	
6136	61.350	-702.55554	19.61580	-569.29956	711.85632	25.26022	-484.42044	-774.10785	-20.52949	648.59381	795.09979	-13.46225	653.89136	-8.48780	661.03864	-951.00525	
6137	61.360	-702.58154	19.62377	-569.36755	711.83594	25.26048	-484.43597	-774.11023	-20.45183	648.62299	795.16394	-13.38791	653.92090	-8.54735	660.94196	-951.13129	
6138	61.370	-702.75537	19.89923	-569.31671	711.88092	25.25580	-484.41516	-774.14178	-20.37193	648.59369	795.16473	-13.30988	653.92798	-8.65197	660.84204	-951.29156	
6139	61.380	-702.70422	19.67584	-569.23999	711.75543	25.24854	-484.40921	-774.16791	-20.37301	648.58801	795.19598	-13.29047	653.94269	-8.67577	660.81635	-951.28912	
6140	61.390	-702.77423	19.63036	-569.24353	711.69141	25.18595	-484.47122	-774.21887	-20.38475	648.59607	795.06708	-13.39440	653.87213	-8.75458	660.79889	-951.25226	
6141	61.400	-702.80096	19.58728	-569.26257	711.62604	25.15598	-484.48193	-774.20612	-20.43507	648.61560	795.03357	-13.42126	653.88220	-8.73694	660.79724	-951.17969	
6142	61.410	-702.85870	19.58805	-569.27313	711.57532	25.16762	-484.47870	-774.26074	-20.39404	648.69092	795.01044	-13.40007	653.89270	-8.78155	660.81946	-951.07745	
6143	61.420	-702.93018	19.73313	-569.30829	711.57263	25.18293	-484.44742	-774.32013	-20.38664	648.67273	795.00629	-13.35973	653.90002	-8.74179	660.87927	-950.95313	
6144	61.430	-703.14124	19.89836	-569.32068	711.59601	25.22840	-484.40775	-774.40338	-20.33790	648.71375	794.99298	-13.36893	653.88873	-8.71737	660.95276	-950.78619	
6145	61.440	-703.26135	20.06164	-569.37872	711.51563	25.22960	-484.41696	-774.44415	-20.36629	648.67291	794.88202	-13.47193	653.87354	-8.78570	660.97241	-950.70251	
6146	61.450	-703.00763	19.55701	-569.38916	711.45929	25.20744	-484.43207	-774.45032	-20.31557	648.70111	794.77905	-13.48751	653.91913	-8.90825	660.90460	-950.69092	
6147	61.460	-703.06659	19.44479	-569.36554	711.39807	25.11465	-484.42130	-774.61542	-20.15744	648.74243	794.63898	-13.47435	653.93506	-8.99806	660.84937	-950.70563	
6148	61.470	-703.18738	19.39869	-569.38788	711.30255	25.00651	-484.45142	-774.64093	-20.26821	648.79816	794.62878	-13.51540	653.91370	-9.13363	660.83295	-950.83057	
6149	61.480	-703.23541	19.45820	-569.41437	711.27783	25.08052	-484.45871	-774.70746	-20.19193	648.77649	794.56000	-13.39134	653.90192	-9.19992	660.88922	-950.97412	
6150	61.490	-703.27936	19.48162	-569.44147	711.23175	25.15482	-484.40146	-774.80475	-20.21609	648.77802	794.40295	-13.50634	653.91187	-9.18279	660.86530	-951.20166	
6151	61.500	-703.37329	19.49347	-569.43140	710.97913	25.31352	-484.52951	-774.88959	-20.31547	648.80078	794.23029	-13.59651	653.96259	-9.26621	660.90387	-951.26025	
6152	61.510	-703.37219	19.47746	-569.44385	710.88074	25.28759	-484.41730	-774.94214	-20.33003	648.80334	794.18732	-13.55517	653.96741	-9.28501	660.92371	-951.25165	
6153	61.520	-703.43091	19.56839	-569.38379	710.89691	25.36867	-484.43234	-774.96375	-20.30217	648.80341	794.09949	-13.57391	653.95624	-9.33728	660.98590	-951.33008	
6154	61.530	-703.13519	19.34614	-569.12573	710.86993	25.39125	-484.42319	-775.13538	-20.25550	648.80365	794.00323	-13.56976	653.97748	-9.36998	661.03088	-951.25763	
6155	61.540	-703.57593	19.64825	-569.41132	710.82068	25.38671	-484.45804	-775.19983	-20.41498	648.76483	794.00116	-13.59613	653.98199	-9.46531	661.00739	-951.15381	
6156	61.550	-703.52466	19.61538	-569.53192	710.68768	25.42818	-484.43906	-775.36505	-20.47463	648.77264	793.88477	-13.59096	654.02203	-9.73321	661.04767	-950.85828	
6157	61.560	-703.66431	19.60659	-569.53003	710.68939	25.33213	-484.40881	-775.45471	-20.50802	648.80835	793.82953	-13.59174	654.00262	-9.88165	661.10486	-950.58112	
6158	61.570	-703.75031	19.61561	-569.50311	710.53650	25.36334	-484.40912	-775.60199	-20.46320	648.84271	793.73431	-13.60125	654.00446	-9.93243	661.20630	-950.45642	
6159	61.580	-703.94183	19.81745	-569.42712	710.50513	25.55703	-484.44284	-775.51941	-20.35226	648.97906	793.64948	-13.58351	654.03082	-9.91378	661.21906	-950.33130	
6160	61.590	-704.19971	19.89908	-569.30121	710.45459	25.48197	-484.47372	-775.70837	-20.36320	648.98212	793.59668	-13.63376	653.99426	-10.03009	661.26807	-950.33997	
6161	61.600	-704.14435	19.86281	-569.44604	710.42682	25.47737	-484.38394	-775.84979	-20.44511	648.95929	793.45422	-13.71937	653.98419	-10.21961	661.30280	-950.36761	
